<svg width="152" height="26" viewBox="0 0 152 26" fill="none" xmlns="http://www.w3.org/2000/svg">
<rect x="0.5" width="151" height="26" rx="7" fill="#FFEED8"/>
<path d="M16.984 10.44C16.984 9.964 16.9187 9.614 16.788 9.39C16.6573 9.15667 16.396 9.04 16.004 9.04H15.724V8.76H19.364C20.26 8.76 21.0673 8.95133 21.786 9.334C22.5047 9.71667 22.864 10.4587 22.864 11.56C22.864 12.288 22.6773 12.848 22.304 13.24C21.9307 13.632 21.5107 13.8933 21.044 14.024C20.5867 14.1547 20.1667 14.22 19.784 14.22H18.244V18H16.984V10.44ZM19.294 13.73C19.5927 13.73 19.91 13.6553 20.246 13.506C20.582 13.3473 20.8667 13.1 21.1 12.764C21.3427 12.428 21.464 12.0033 21.464 11.49C21.464 10.9767 21.3427 10.552 21.1 10.216C20.8667 9.88 20.582 9.63733 20.246 9.488C19.91 9.32933 19.5927 9.25 19.294 9.25C18.9673 9.25 18.6173 9.29667 18.244 9.39V13.59C18.6173 13.6833 18.9673 13.73 19.294 13.73ZM25.7323 18.14C25.4336 18.14 25.1303 18.0793 24.8223 17.958C24.5143 17.8273 24.2483 17.6173 24.0243 17.328C23.8096 17.0387 23.7023 16.656 23.7023 16.18C23.7023 15.4707 24.0289 14.9667 24.6823 14.668C25.3449 14.3693 26.2083 14.22 27.2722 14.22H27.6923C27.6923 13.3053 27.5663 12.68 27.3143 12.344C27.0623 12.008 26.6983 11.84 26.2223 11.84C25.8023 11.84 25.4663 11.9287 25.2142 12.106C24.9623 12.2833 24.7849 12.5913 24.6823 13.03H24.0523C24.0523 12.7127 24.0709 12.4653 24.1083 12.288C24.1456 12.1013 24.2436 11.9287 24.4023 11.77C24.5703 11.602 24.8456 11.4807 25.2283 11.406C25.6203 11.322 26.0449 11.28 26.5023 11.28C27.2583 11.28 27.8556 11.4853 28.2943 11.896C28.7329 12.2973 28.9523 13.072 28.9523 14.22V18H28.2523L27.7623 17.37H27.6923C27.5243 17.5847 27.2769 17.7667 26.9503 17.916C26.6236 18.0653 26.2176 18.14 25.7323 18.14ZM26.3623 17.51C26.6703 17.51 26.9269 17.4353 27.1323 17.286C27.3376 17.1367 27.5243 16.9313 27.6923 16.67V14.78H27.2722C26.5816 14.78 26.0356 14.9107 25.6343 15.172C25.2329 15.424 25.0323 15.76 25.0323 16.18C25.0323 16.6093 25.1583 16.9407 25.4103 17.174C25.6716 17.398 25.9889 17.51 26.3623 17.51ZM31.2298 20.38C31.6871 20.38 32.0604 20.2727 32.3498 20.058C32.6484 19.8527 32.9051 19.47 33.1198 18.91L33.3998 18.14L31.1598 12.68C30.8984 12.008 30.3851 11.6347 29.6198 11.56V11.28H30.8098C31.6218 11.28 32.1818 11.6533 32.4898 12.4L34.0858 16.278L35.8498 11.42H36.5498L33.8198 18.91C33.5491 19.6473 33.2504 20.1467 32.9238 20.408C32.5971 20.6693 32.1724 20.8 31.6498 20.8H31.2298V20.38ZM49.1592 18.07C48.7112 18.07 48.2678 17.9487 47.8292 17.706C47.3905 17.454 47.0405 16.9687 46.7792 16.25L46.4292 15.34H42.5092L41.3892 18H40.7592L44.6792 8.76H45.0992L48.1792 16.25C48.4125 16.7913 48.6318 17.1647 48.8372 17.37C49.0425 17.566 49.3365 17.6827 49.7192 17.72V18C49.5512 18.0467 49.3645 18.07 49.1592 18.07ZM46.1492 14.78L44.4692 10.72L42.7192 14.78H46.1492ZM49.6319 11.98V11.42H50.6119V11C50.6119 9.41333 51.4286 8.62 53.0619 8.62C53.6499 8.62 54.0466 8.69 54.2519 8.83C54.4106 8.95133 54.5739 9.16133 54.7419 9.46L54.3219 9.81C54.0419 9.39 53.5986 9.18 52.9919 9.18C52.2452 9.18 51.8719 9.78667 51.8719 11V11.42H53.8319V11.98H51.8719V18H50.6119V11.98H49.6319ZM57.0087 18.14C56.486 18.14 56.0754 17.9907 55.7767 17.692C55.478 17.3933 55.3287 16.936 55.3287 16.32V11.98H54.3487V11.42H55.3287V10.16L56.0287 9.32H56.5887V11.42H58.2687V11.98H56.5887V16.32C56.5887 17.16 56.9154 17.58 57.5687 17.58C57.7927 17.58 57.9794 17.5567 58.1287 17.51C58.2874 17.4633 58.4507 17.3933 58.6187 17.3L58.7587 17.58C58.544 17.7387 58.306 17.874 58.0447 17.986C57.7834 18.0887 57.438 18.14 57.0087 18.14ZM62.3552 18.14C61.7205 18.14 61.1838 17.9907 60.7452 17.692C60.3065 17.384 59.9752 16.9733 59.7512 16.46C59.5272 15.9373 59.4152 15.354 59.4152 14.71C59.4152 14.0753 59.5272 13.4967 59.7512 12.974C59.9752 12.4513 60.2972 12.0407 60.7172 11.742C61.1465 11.434 61.6458 11.28 62.2152 11.28C63.1578 11.28 63.8578 11.546 64.3152 12.078C64.7818 12.6007 65.0152 13.3613 65.0152 14.36L64.9872 14.92H60.7452C60.7452 15.704 60.9132 16.3433 61.2492 16.838C61.5852 17.3327 62.0472 17.58 62.6352 17.58C63.0738 17.58 63.4425 17.4867 63.7412 17.3C64.0492 17.1133 64.3338 16.8333 64.5952 16.46L64.8752 16.67C64.5672 17.1833 64.2078 17.5567 63.7972 17.79C63.3865 18.0233 62.9058 18.14 62.3552 18.14ZM63.6852 14.36C63.6852 13.5387 63.5638 12.9133 63.3212 12.484C63.0785 12.0547 62.7098 11.84 62.2152 11.84C61.9352 11.84 61.6832 11.952 61.4592 12.176C61.2352 12.3907 61.0578 12.6893 60.9272 13.072C60.8058 13.4547 60.7452 13.884 60.7452 14.36H63.6852ZM66.7411 13.1C66.7411 12.624 66.6758 12.274 66.5451 12.05C66.4144 11.8167 66.1531 11.7 65.7611 11.7H65.6211V11.42H66.7411C67.0958 11.42 67.3618 11.4713 67.5391 11.574C67.7258 11.6673 67.8564 11.826 67.9311 12.05H68.0011C68.1691 11.8353 68.3931 11.6533 68.6731 11.504C68.9624 11.3547 69.2984 11.28 69.6811 11.28C70.0544 11.28 70.3344 11.35 70.5211 11.49C70.6798 11.6113 70.8431 11.8213 71.0111 12.12L70.4511 12.54C70.3484 12.4 70.1991 12.2973 70.0031 12.232C69.8071 12.1573 69.5831 12.12 69.3311 12.12C69.0511 12.12 68.7944 12.1853 68.5611 12.316C68.3278 12.4373 68.1411 12.6053 68.0011 12.82V18H66.7411V13.1ZM76.1695 10.44C76.1695 9.964 76.1042 9.614 75.9735 9.39C75.8429 9.15667 75.5815 9.04 75.1895 9.04H74.9095V8.76H78.5495C79.4455 8.76 80.2529 8.95133 80.9715 9.334C81.6902 9.71667 82.0495 10.4587 82.0495 11.56C82.0495 12.288 81.8629 12.848 81.4895 13.24C81.1162 13.632 80.6962 13.8933 80.2295 14.024C79.7722 14.1547 79.3522 14.22 78.9695 14.22H77.4295V18H76.1695V10.44ZM78.4795 13.73C78.7782 13.73 79.0955 13.6553 79.4315 13.506C79.7675 13.3473 80.0522 13.1 80.2855 12.764C80.5282 12.428 80.6495 12.0033 80.6495 11.49C80.6495 10.9767 80.5282 10.552 80.2855 10.216C80.0522 9.88 79.7675 9.63733 79.4315 9.488C79.0955 9.32933 78.7782 9.25 78.4795 9.25C78.1529 9.25 77.8029 9.29667 77.4295 9.39V13.59C77.8029 13.6833 78.1529 13.73 78.4795 13.73ZM83.4742 10.44C83.4742 9.964 83.4088 9.614 83.2782 9.39C83.1475 9.15667 82.8862 9.04 82.4942 9.04H82.2142V8.76H83.4742C83.8195 8.76 84.0762 8.80667 84.2442 8.9C84.4215 8.984 84.5475 9.14267 84.6222 9.376C84.6968 9.60933 84.7342 9.964 84.7342 10.44V18H83.4742V10.44ZM88.3768 18.14C88.0781 18.14 87.7748 18.0793 87.4668 17.958C87.1588 17.8273 86.8928 17.6173 86.6688 17.328C86.4541 17.0387 86.3468 16.656 86.3468 16.18C86.3468 15.4707 86.6734 14.9667 87.3268 14.668C87.9894 14.3693 88.8528 14.22 89.9168 14.22H90.3368C90.3368 13.3053 90.2108 12.68 89.9588 12.344C89.7068 12.008 89.3428 11.84 88.8668 11.84C88.4468 11.84 88.1108 11.9287 87.8588 12.106C87.6068 12.2833 87.4294 12.5913 87.3268 13.03H86.6968C86.6968 12.7127 86.7154 12.4653 86.7528 12.288C86.7901 12.1013 86.8881 11.9287 87.0468 11.77C87.2148 11.602 87.4901 11.4807 87.8728 11.406C88.2648 11.322 88.6894 11.28 89.1468 11.28C89.9028 11.28 90.5001 11.4853 90.9388 11.896C91.3774 12.2973 91.5968 13.072 91.5968 14.22V18H90.8968L90.4068 17.37H90.3368C90.1688 17.5847 89.9214 17.7667 89.5948 17.916C89.2681 18.0653 88.8621 18.14 88.3768 18.14ZM89.0068 17.51C89.3148 17.51 89.5714 17.4353 89.7768 17.286C89.9821 17.1367 90.1688 16.9313 90.3368 16.67V14.78H89.9168C89.2261 14.78 88.6801 14.9107 88.2788 15.172C87.8774 15.424 87.6768 15.76 87.6768 16.18C87.6768 16.6093 87.8028 16.9407 88.0548 17.174C88.3161 17.398 88.6334 17.51 89.0068 17.51ZM96.251 18.14C95.579 18.14 95.0097 17.9907 94.543 17.692C94.0857 17.384 93.7403 16.9733 93.507 16.46C93.283 15.9373 93.171 15.354 93.171 14.71C93.171 14.066 93.283 13.4873 93.507 12.974C93.7403 12.4513 94.0857 12.0407 94.543 11.742C95.0097 11.434 95.579 11.28 96.251 11.28C97.2777 11.28 97.9543 11.4433 98.281 11.77C98.4397 11.9287 98.5377 12.1247 98.575 12.358C98.6123 12.582 98.631 12.9927 98.631 13.59H98.351C98.3137 13.0113 98.1317 12.5773 97.805 12.288C97.4783 11.9893 97.0537 11.84 96.531 11.84C95.859 11.84 95.3503 12.106 95.005 12.638C94.669 13.17 94.501 13.8607 94.501 14.71C94.501 15.5593 94.669 16.25 95.005 16.782C95.3503 17.314 95.859 17.58 96.531 17.58C97.007 17.58 97.399 17.4913 97.707 17.314C98.015 17.1273 98.2997 16.8427 98.561 16.46L98.841 16.67C98.533 17.1927 98.169 17.5707 97.749 17.804C97.329 18.028 96.8297 18.14 96.251 18.14ZM102.879 18.14C102.244 18.14 101.707 17.9907 101.269 17.692C100.83 17.384 100.499 16.9733 100.275 16.46C100.051 15.9373 99.9386 15.354 99.9386 14.71C99.9386 14.0753 100.051 13.4967 100.275 12.974C100.499 12.4513 100.821 12.0407 101.241 11.742C101.67 11.434 102.169 11.28 102.739 11.28C103.681 11.28 104.381 11.546 104.839 12.078C105.305 12.6007 105.539 13.3613 105.539 14.36L105.511 14.92H101.269C101.269 15.704 101.437 16.3433 101.773 16.838C102.109 17.3327 102.571 17.58 103.159 17.58C103.597 17.58 103.966 17.4867 104.265 17.3C104.573 17.1133 104.857 16.8333 105.119 16.46L105.399 16.67C105.091 17.1833 104.731 17.5567 104.321 17.79C103.91 18.0233 103.429 18.14 102.879 18.14ZM104.209 14.36C104.209 13.5387 104.087 12.9133 103.845 12.484C103.602 12.0547 103.233 11.84 102.739 11.84C102.459 11.84 102.207 11.952 101.983 12.176C101.759 12.3907 101.581 12.6893 101.451 13.072C101.329 13.4547 101.269 13.884 101.269 14.36H104.209ZM107.363 13.1C107.363 12.624 107.297 12.274 107.167 12.05C107.036 11.8167 106.775 11.7 106.383 11.7H106.103V11.42H107.363C107.708 11.42 107.969 11.4667 108.147 11.56C108.333 11.6533 108.469 11.7933 108.553 11.98H108.623C108.819 11.784 109.071 11.6207 109.379 11.49C109.696 11.35 110.051 11.28 110.443 11.28C110.835 11.28 111.171 11.3547 111.451 11.504C111.731 11.644 111.955 11.896 112.123 12.26C112.365 11.952 112.673 11.714 113.047 11.546C113.429 11.3687 113.821 11.28 114.223 11.28C114.82 11.28 115.296 11.4667 115.651 11.84C116.005 12.2133 116.183 12.8667 116.183 13.8V18H114.923V13.8C114.923 13.128 114.829 12.6473 114.643 12.358C114.456 12.0593 114.176 11.91 113.803 11.91C113.541 11.91 113.266 12.008 112.977 12.204C112.687 12.3907 112.473 12.596 112.333 12.82C112.379 12.96 112.403 13.2867 112.403 13.8V18H111.143V13.8C111.143 13.128 111.049 12.6473 110.863 12.358C110.676 12.0593 110.396 11.91 110.023 11.91C109.528 11.91 109.061 12.1573 108.623 12.652V18H107.363V13.1ZM120.707 18.14C120.072 18.14 119.535 17.9907 119.097 17.692C118.658 17.384 118.327 16.9733 118.103 16.46C117.879 15.9373 117.767 15.354 117.767 14.71C117.767 14.0753 117.879 13.4967 118.103 12.974C118.327 12.4513 118.649 12.0407 119.069 11.742C119.498 11.434 119.997 11.28 120.567 11.28C121.509 11.28 122.209 11.546 122.667 12.078C123.133 12.6007 123.367 13.3613 123.367 14.36L123.339 14.92H119.097C119.097 15.704 119.265 16.3433 119.601 16.838C119.937 17.3327 120.399 17.58 120.987 17.58C121.425 17.58 121.794 17.4867 122.093 17.3C122.401 17.1133 122.685 16.8333 122.947 16.46L123.227 16.67C122.919 17.1833 122.559 17.5567 122.149 17.79C121.738 18.0233 121.257 18.14 120.707 18.14ZM122.037 14.36C122.037 13.5387 121.915 12.9133 121.673 12.484C121.43 12.0547 121.061 11.84 120.567 11.84C120.287 11.84 120.035 11.952 119.811 12.176C119.587 12.3907 119.409 12.6893 119.279 13.072C119.157 13.4547 119.097 13.884 119.097 14.36H122.037ZM125.191 13.1C125.191 12.624 125.125 12.274 124.995 12.05C124.864 11.8167 124.603 11.7 124.211 11.7H123.931V11.42H125.191C125.536 11.42 125.797 11.4667 125.975 11.56C126.161 11.6533 126.297 11.7933 126.381 11.98H126.451C126.647 11.784 126.899 11.6207 127.207 11.49C127.524 11.35 127.879 11.28 128.271 11.28C128.971 11.28 129.54 11.4667 129.979 11.84C130.427 12.2133 130.651 12.8667 130.651 13.8V18H129.391V13.8C129.391 13.1467 129.241 12.6707 128.943 12.372C128.653 12.064 128.289 11.91 127.851 11.91C127.356 11.91 126.889 12.1573 126.451 12.652V18H125.191V13.1ZM134.542 18.14C134.019 18.14 133.609 17.9907 133.31 17.692C133.011 17.3933 132.862 16.936 132.862 16.32V11.98H131.882V11.42H132.862V10.16L133.562 9.32H134.122V11.42H135.802V11.98H134.122V16.32C134.122 17.16 134.449 17.58 135.102 17.58C135.326 17.58 135.513 17.5567 135.662 17.51C135.821 17.4633 135.984 17.3933 136.152 17.3L136.292 17.58C136.077 17.7387 135.839 17.874 135.578 17.986C135.317 18.0887 134.971 18.14 134.542 18.14Z" fill="#965400"/>
</svg>
