<svg width="125" height="26" viewBox="0 0 125 26" fill="none" xmlns="http://www.w3.org/2000/svg">
<rect x="0.5" width="124" height="26" rx="7" fill="#E0F3FF"/>
<path d="M16.984 10.44C16.984 9.964 16.9187 9.614 16.788 9.39C16.6573 9.15667 16.396 9.04 16.004 9.04H15.724V8.76H16.984C17.3293 8.76 17.586 8.80667 17.754 8.9C17.9313 8.984 18.0573 9.14267 18.132 9.376C18.2067 9.60933 18.244 9.964 18.244 10.44V17.44H23.214V18H16.984V10.44ZM25.0566 10.58C24.842 10.58 24.6553 10.4913 24.4966 10.314C24.3473 10.1367 24.2726 9.92667 24.2726 9.684C24.2726 9.488 24.3286 9.334 24.4406 9.222C24.562 9.11 24.7206 9.054 24.9166 9.054C25.1313 9.054 25.3133 9.14267 25.4626 9.32C25.6213 9.49733 25.7006 9.70733 25.7006 9.95C25.7006 10.146 25.64 10.3 25.5186 10.412C25.4066 10.524 25.2526 10.58 25.0566 10.58ZM24.5246 13.1C24.5246 12.624 24.4593 12.274 24.3286 12.05C24.198 11.8167 23.9366 11.7 23.5446 11.7H23.2646V11.42H24.5246C24.87 11.42 25.1266 11.4667 25.2946 11.56C25.472 11.644 25.598 11.8027 25.6726 12.036C25.7473 12.2693 25.7846 12.624 25.7846 13.1V18H24.5246V13.1ZM27.046 11.98V11.42H28.026V11C28.026 9.41333 28.8426 8.62 30.476 8.62C31.064 8.62 31.4606 8.69 31.666 8.83C31.8246 8.95133 31.988 9.16133 32.156 9.46L31.736 9.81C31.456 9.39 31.0126 9.18 30.406 9.18C29.6593 9.18 29.286 9.78667 29.286 11V11.42H31.246V11.98H29.286V18H28.026V11.98H27.046ZM34.8747 18.14C34.24 18.14 33.7034 17.9907 33.2647 17.692C32.826 17.384 32.4947 16.9733 32.2707 16.46C32.0467 15.9373 31.9347 15.354 31.9347 14.71C31.9347 14.0753 32.0467 13.4967 32.2707 12.974C32.4947 12.4513 32.8167 12.0407 33.2367 11.742C33.666 11.434 34.1654 11.28 34.7347 11.28C35.6774 11.28 36.3774 11.546 36.8347 12.078C37.3014 12.6007 37.5347 13.3613 37.5347 14.36L37.5067 14.92H33.2647C33.2647 15.704 33.4327 16.3433 33.7687 16.838C34.1047 17.3327 34.5667 17.58 35.1547 17.58C35.5934 17.58 35.962 17.4867 36.2607 17.3C36.5687 17.1133 36.8534 16.8333 37.1147 16.46L37.3947 16.67C37.0867 17.1833 36.7274 17.5567 36.3167 17.79C35.906 18.0233 35.4254 18.14 34.8747 18.14ZM36.2047 14.36C36.2047 13.5387 36.0834 12.9133 35.8407 12.484C35.598 12.0547 35.2294 11.84 34.7347 11.84C34.4547 11.84 34.2027 11.952 33.9787 12.176C33.7547 12.3907 33.5774 12.6893 33.4467 13.072C33.3254 13.4547 33.2647 13.884 33.2647 14.36H36.2047ZM41.0946 18.14C40.572 18.14 40.1613 17.9907 39.8626 17.692C39.564 17.3933 39.4146 16.936 39.4146 16.32V11.98H38.4346V11.42H39.4146V10.16L40.1146 9.32H40.6746V11.42H42.3546V11.98H40.6746V16.32C40.6746 17.16 41.0013 17.58 41.6546 17.58C41.8786 17.58 42.0653 17.5567 42.2146 17.51C42.3733 17.4633 42.5366 17.3933 42.7046 17.3L42.8446 17.58C42.63 17.7387 42.392 17.874 42.1306 17.986C41.8693 18.0887 41.524 18.14 41.0946 18.14ZM44.6211 10.58C44.4064 10.58 44.2198 10.4913 44.0611 10.314C43.9118 10.1367 43.8371 9.92667 43.8371 9.684C43.8371 9.488 43.8931 9.334 44.0051 9.222C44.1264 9.11 44.2851 9.054 44.4811 9.054C44.6958 9.054 44.8778 9.14267 45.0271 9.32C45.1858 9.49733 45.2651 9.70733 45.2651 9.95C45.2651 10.146 45.2044 10.3 45.0831 10.412C44.9711 10.524 44.8171 10.58 44.6211 10.58ZM44.0891 13.1C44.0891 12.624 44.0238 12.274 43.8931 12.05C43.7624 11.8167 43.5011 11.7 43.1091 11.7H42.8291V11.42H44.0891C44.4344 11.42 44.6911 11.4667 44.8591 11.56C45.0364 11.644 45.1624 11.8027 45.2371 12.036C45.3118 12.2693 45.3491 12.624 45.3491 13.1V18H44.0891V13.1ZM47.5344 13.1C47.5344 12.624 47.4691 12.274 47.3384 12.05C47.2077 11.8167 46.9464 11.7 46.5544 11.7H46.2744V11.42H47.5344C47.8797 11.42 48.1411 11.4667 48.3184 11.56C48.5051 11.6533 48.6404 11.7933 48.7244 11.98H48.7944C48.9904 11.784 49.2424 11.6207 49.5504 11.49C49.8677 11.35 50.2224 11.28 50.6144 11.28C51.0064 11.28 51.3424 11.3547 51.6224 11.504C51.9024 11.644 52.1264 11.896 52.2944 12.26C52.5371 11.952 52.8451 11.714 53.2184 11.546C53.6011 11.3687 53.9931 11.28 54.3944 11.28C54.9917 11.28 55.4677 11.4667 55.8224 11.84C56.1771 12.2133 56.3544 12.8667 56.3544 13.8V18H55.0944V13.8C55.0944 13.128 55.0011 12.6473 54.8144 12.358C54.6277 12.0593 54.3477 11.91 53.9744 11.91C53.7131 11.91 53.4377 12.008 53.1484 12.204C52.8591 12.3907 52.6444 12.596 52.5044 12.82C52.5511 12.96 52.5744 13.2867 52.5744 13.8V18H51.3144V13.8C51.3144 13.128 51.2211 12.6473 51.0344 12.358C50.8477 12.0593 50.5677 11.91 50.1944 11.91C49.6997 11.91 49.2331 12.1573 48.7944 12.652V18H47.5344V13.1ZM60.8786 18.14C60.2439 18.14 59.7073 17.9907 59.2686 17.692C58.8299 17.384 58.4986 16.9733 58.2746 16.46C58.0506 15.9373 57.9386 15.354 57.9386 14.71C57.9386 14.0753 58.0506 13.4967 58.2746 12.974C58.4986 12.4513 58.8206 12.0407 59.2406 11.742C59.6699 11.434 60.1693 11.28 60.7386 11.28C61.6813 11.28 62.3813 11.546 62.8386 12.078C63.3053 12.6007 63.5386 13.3613 63.5386 14.36L63.5106 14.92H59.2686C59.2686 15.704 59.4366 16.3433 59.7726 16.838C60.1086 17.3327 60.5706 17.58 61.1586 17.58C61.5973 17.58 61.9659 17.4867 62.2646 17.3C62.5726 17.1133 62.8573 16.8333 63.1186 16.46L63.3986 16.67C63.0906 17.1833 62.7313 17.5567 62.3206 17.79C61.9099 18.0233 61.4293 18.14 60.8786 18.14ZM62.2086 14.36C62.2086 13.5387 62.0873 12.9133 61.8446 12.484C61.6019 12.0547 61.2333 11.84 60.7386 11.84C60.4586 11.84 60.2066 11.952 59.9826 12.176C59.7586 12.3907 59.5813 12.6893 59.4506 13.072C59.3293 13.4547 59.2686 13.884 59.2686 14.36H62.2086ZM76.3525 18.07C75.9045 18.07 75.4612 17.9487 75.0225 17.706C74.5839 17.454 74.2339 16.9687 73.9725 16.25L73.6225 15.34H69.7025L68.5825 18H67.9525L71.8725 8.76H72.2925L75.3725 16.25C75.6059 16.7913 75.8252 17.1647 76.0305 17.37C76.2359 17.566 76.5299 17.6827 76.9125 17.72V18C76.7445 18.0467 76.5579 18.07 76.3525 18.07ZM73.3425 14.78L71.6625 10.72L69.9125 14.78H73.3425ZM80.2413 18.14C79.5693 18.14 78.9999 17.9907 78.5333 17.692C78.0759 17.384 77.7306 16.9733 77.4973 16.46C77.2733 15.9373 77.1613 15.354 77.1613 14.71C77.1613 14.066 77.2733 13.4873 77.4973 12.974C77.7306 12.4513 78.0759 12.0407 78.5333 11.742C78.9999 11.434 79.5693 11.28 80.2413 11.28C81.2679 11.28 81.9446 11.4433 82.2713 11.77C82.4299 11.9287 82.5279 12.1247 82.5653 12.358C82.6026 12.582 82.6213 12.9927 82.6213 13.59H82.3413C82.3039 13.0113 82.1219 12.5773 81.7953 12.288C81.4686 11.9893 81.0439 11.84 80.5213 11.84C79.8493 11.84 79.3406 12.106 78.9953 12.638C78.6593 13.17 78.4913 13.8607 78.4913 14.71C78.4913 15.5593 78.6593 16.25 78.9953 16.782C79.3406 17.314 79.8493 17.58 80.5213 17.58C80.9973 17.58 81.3893 17.4913 81.6973 17.314C82.0053 17.1273 82.2899 16.8427 82.5513 16.46L82.8313 16.67C82.5233 17.1927 82.1593 17.5707 81.7393 17.804C81.3193 18.028 80.8199 18.14 80.2413 18.14ZM87.0088 18.14C86.3368 18.14 85.7675 17.9907 85.3008 17.692C84.8435 17.384 84.4982 16.9733 84.2648 16.46C84.0408 15.9373 83.9288 15.354 83.9288 14.71C83.9288 14.066 84.0408 13.4873 84.2648 12.974C84.4982 12.4513 84.8435 12.0407 85.3008 11.742C85.7675 11.434 86.3368 11.28 87.0088 11.28C88.0355 11.28 88.7122 11.4433 89.0388 11.77C89.1975 11.9287 89.2955 12.1247 89.3328 12.358C89.3702 12.582 89.3888 12.9927 89.3888 13.59H89.1088C89.0715 13.0113 88.8895 12.5773 88.5628 12.288C88.2362 11.9893 87.8115 11.84 87.2888 11.84C86.6168 11.84 86.1082 12.106 85.7628 12.638C85.4268 13.17 85.2588 13.8607 85.2588 14.71C85.2588 15.5593 85.4268 16.25 85.7628 16.782C86.1082 17.314 86.6168 17.58 87.2888 17.58C87.7648 17.58 88.1568 17.4913 88.4648 17.314C88.7728 17.1273 89.0575 16.8427 89.3188 16.46L89.5988 16.67C89.2908 17.1927 88.9268 17.5707 88.5068 17.804C88.0868 18.028 87.5875 18.14 87.0088 18.14ZM93.6364 18.14C93.0017 18.14 92.4651 17.9907 92.0264 17.692C91.5877 17.384 91.2564 16.9733 91.0324 16.46C90.8084 15.9373 90.6964 15.354 90.6964 14.71C90.6964 14.0753 90.8084 13.4967 91.0324 12.974C91.2564 12.4513 91.5784 12.0407 91.9984 11.742C92.4277 11.434 92.9271 11.28 93.4964 11.28C94.4391 11.28 95.1391 11.546 95.5964 12.078C96.0631 12.6007 96.2964 13.3613 96.2964 14.36L96.2684 14.92H92.0264C92.0264 15.704 92.1944 16.3433 92.5304 16.838C92.8664 17.3327 93.3284 17.58 93.9164 17.58C94.3551 17.58 94.7237 17.4867 95.0224 17.3C95.3304 17.1133 95.6151 16.8333 95.8764 16.46L96.1564 16.67C95.8484 17.1833 95.4891 17.5567 95.0784 17.79C94.6677 18.0233 94.1871 18.14 93.6364 18.14ZM94.9664 14.36C94.9664 13.5387 94.8451 12.9133 94.6024 12.484C94.3597 12.0547 93.9911 11.84 93.4964 11.84C93.2164 11.84 92.9644 11.952 92.7404 12.176C92.5164 12.3907 92.3391 12.6893 92.2084 13.072C92.0871 13.4547 92.0264 13.884 92.0264 14.36H94.9664ZM100.108 18.14C99.035 18.14 98.3117 17.9533 97.9383 17.58C97.7797 17.4213 97.6817 17.244 97.6443 17.048C97.607 16.8427 97.5883 16.53 97.5883 16.11H97.8683C97.9523 16.5767 98.153 16.9407 98.4703 17.202C98.797 17.454 99.2497 17.58 99.8283 17.58C100.342 17.58 100.724 17.4913 100.976 17.314C101.238 17.1367 101.368 16.8987 101.368 16.6C101.368 16.3293 101.266 16.096 101.06 15.9C100.864 15.704 100.547 15.5173 100.108 15.34L99.2683 14.99C98.7083 14.766 98.2883 14.5047 98.0083 14.206C97.7283 13.9073 97.5883 13.5387 97.5883 13.1C97.5883 12.5307 97.803 12.0873 98.2323 11.77C98.6617 11.4433 99.217 11.28 99.8983 11.28C100.925 11.28 101.625 11.4667 101.998 11.84C102.157 11.9987 102.255 12.176 102.292 12.372C102.33 12.568 102.348 12.8807 102.348 13.31H102.068C101.994 12.8433 101.798 12.484 101.48 12.232C101.163 11.9707 100.729 11.84 100.178 11.84C99.7397 11.84 99.3943 11.9333 99.1423 12.12C98.8997 12.2973 98.7783 12.5307 98.7783 12.82C98.7783 13.3053 99.1517 13.702 99.8983 14.01L100.738 14.36C101.373 14.6213 101.835 14.9013 102.124 15.2C102.414 15.4893 102.558 15.8627 102.558 16.32C102.558 16.8893 102.33 17.3373 101.872 17.664C101.415 17.9813 100.827 18.14 100.108 18.14ZM106.356 18.14C105.283 18.14 104.56 17.9533 104.186 17.58C104.028 17.4213 103.93 17.244 103.892 17.048C103.855 16.8427 103.836 16.53 103.836 16.11H104.116C104.2 16.5767 104.401 16.9407 104.718 17.202C105.045 17.454 105.498 17.58 106.076 17.58C106.59 17.58 106.972 17.4913 107.224 17.314C107.486 17.1367 107.616 16.8987 107.616 16.6C107.616 16.3293 107.514 16.096 107.308 15.9C107.112 15.704 106.795 15.5173 106.356 15.34L105.516 14.99C104.956 14.766 104.536 14.5047 104.256 14.206C103.976 13.9073 103.836 13.5387 103.836 13.1C103.836 12.5307 104.051 12.0873 104.48 11.77C104.91 11.4433 105.465 11.28 106.146 11.28C107.173 11.28 107.873 11.4667 108.246 11.84C108.405 11.9987 108.503 12.176 108.54 12.372C108.578 12.568 108.596 12.8807 108.596 13.31H108.316C108.242 12.8433 108.046 12.484 107.728 12.232C107.411 11.9707 106.977 11.84 106.426 11.84C105.988 11.84 105.642 11.9333 105.39 12.12C105.148 12.2973 105.026 12.5307 105.026 12.82C105.026 13.3053 105.4 13.702 106.146 14.01L106.986 14.36C107.621 14.6213 108.083 14.9013 108.372 15.2C108.662 15.4893 108.806 15.8627 108.806 16.32C108.806 16.8893 108.578 17.3373 108.12 17.664C107.663 17.9813 107.075 18.14 106.356 18.14Z" fill="#1D78B0"/>
</svg>
