<svg width="686" height="774" viewBox="0 0 686 774" fill="none" xmlns="http://www.w3.org/2000/svg">
<g filter="url(#filter0_f_1924_146)">
<path d="M254 182L265.567 244.399L311.603 200.716L284.284 257.998L347.204 249.716L291.433 280L347.204 310.284L284.284 302.002L311.603 359.284L265.567 315.601L254 378L242.433 315.601L196.397 359.284L223.716 302.002L160.796 310.284L216.567 280L160.796 249.716L223.716 257.998L196.397 200.716L242.433 244.399L254 182Z" fill="#FF7169"/>
<path opacity="0.7" d="M191.329 378.702L310.475 474.907L454.521 535.419L300.302 591.467L164.698 683.859L199.772 531.606L191.329 378.702Z" fill="#3797D2"/>
<path opacity="0.8" d="M383.154 438.912L436.336 486.527L456.854 411.471L465.203 484.421L526.904 428.424L487.231 498.844L566.547 483.294L494.006 524.286L560.642 555.124L482.94 551.031L511.443 616.477L458.26 568.862L437.743 643.918L429.394 570.968L367.693 626.965L407.366 556.545L328.049 572.095L400.591 531.102L333.955 500.265L411.657 504.358L383.154 438.912Z" fill="#FF940A"/>
<path opacity="0.6" d="M469.5 160L487.972 259.648L561.488 189.889L517.861 281.364L618.34 268.139L529.278 316.5L618.34 364.861L517.861 351.636L561.488 443.111L487.972 373.352L469.5 473L451.028 373.352L377.512 443.111L421.139 351.636L320.66 364.861L409.722 316.5L320.66 268.139L421.139 281.364L377.512 189.889L451.028 259.648L469.5 160Z" fill="#945FF6"/>
</g>
<defs>
<filter id="filter0_f_1924_146" x="0.796463" y="0" width="777.544" height="843.859" filterUnits="userSpaceOnUse" color-interpolation-filters="sRGB">
<feFlood flood-opacity="0" result="BackgroundImageFix"/>
<feBlend mode="normal" in="SourceGraphic" in2="BackgroundImageFix" result="shape"/>
<feGaussianBlur stdDeviation="80" result="effect1_foregroundBlur_1924_146"/>
</filter>
</defs>
</svg>
